<?xml version="1.0" encoding="utf-8"?>
<!-- Generator: Adobe Illustrator 23.1.1, SVG Export Plug-In . SVG Version: 6.00 Build 0)  -->
<svg version="1.1" xmlns="http://www.w3.org/2000/svg" xmlns:xlink="http://www.w3.org/1999/xlink" x="0px" y="0px"
	 viewBox="0 0 229.8 203.8" style="enable-background:new 0 0 229.8 203.8;" xml:space="preserve">
<style type="text/css">
	.st0{display:none;}
	.st1{fill:#6ABD45;}
	.st2{fill:none;stroke:#6ABD45;stroke-width:14;stroke-linecap:round;stroke-linejoin:round;stroke-miterlimit:10;}
	.st3{fill:#D9E026;}
	.st4{fill:#FFFFFF;}
	.st5{fill:#4C9034;}
	.st6{fill:none;stroke:#000000;stroke-width:5;stroke-linecap:round;stroke-linejoin:round;stroke-miterlimit:10;}
</style>
<g id="Layer_1" class="st0">
	
		<image style="display:inline;overflow:visible;" width="2364" height="1322" xlink:href="../../../Screenshot 2020-02-02 at 00.11.02.png"  transform="matrix(0.5 0 0 0.5 -26.4796 -26.4812)">
	</image>
</g>
<g id="Layer_2">
	<g>
		<path class="st1" d="M109.8,62.8c-2.7,0-5.3-1.6-6.4-4.2c-1.5-3.5,0.1-7.7,3.6-9.2c19.5-8.5,19.6-12.4,20.3-33.9l0.1-3.4
			c0.1-3.9,3.4-6.9,7.3-6.7c3.9,0.1,6.9,3.4,6.7,7.3l-0.1,3.4c-0.9,24.3-2.3,34.7-28.7,46.3C111.6,62.6,110.7,62.8,109.8,62.8z"/>
		<path class="st1" d="M137.6,62.8c-2.7,0-5.3-1.6-6.4-4.2c-1.5-3.5,0.1-7.7,3.6-9.2c19.5-8.5,19.6-12.4,20.3-33.9l0.1-3.4
			c0.1-3.9,3.4-6.9,7.3-6.7c3.9,0.1,6.9,3.4,6.7,7.3l-0.1,3.4c-0.9,24.3-2.3,34.7-28.7,46.3C139.5,62.6,138.5,62.8,137.6,62.8z"/>
		<path class="st1" d="M170.7,198.7c-0.6,0-1.3-0.1-1.9-0.3l-3.3-0.9c-23.4-6.7-33.1-10.5-38-39c-0.7-3.8,1.9-7.4,5.7-8.1
			c3.8-0.7,7.4,1.9,8.1,5.7c3.6,20.9,7.3,22,28,27.9l3.3,0.9c3.7,1.1,5.9,4.9,4.8,8.7C176.5,196.7,173.7,198.7,170.7,198.7z"/>
		<path class="st1" d="M162.2,83.2c-2.7,0-5.3-1.6-6.4-4.2c-1.5-3.5,0.1-7.7,3.6-9.2c19.5-8.5,19.6-12.4,20.3-33.9l0.1-3.4
			c0.1-3.9,3.4-6.9,7.3-6.7c3.9,0.1,6.9,3.4,6.7,7.3l-0.1,3.4c-0.9,24.3-2.3,34.7-28.7,46.3C164.1,83,163.2,83.2,162.2,83.2z"/>
		<path class="st1" d="M184.4,171.9c-10,0-18.4-4.5-30-17.7c-2.6-2.9-2.3-7.3,0.6-9.9c2.9-2.6,7.3-2.3,9.9,0.6
			c14,15.9,17.8,14.9,38.5,9l3.3-0.9c3.7-1,7.6,1.1,8.6,4.9c1,3.7-1.1,7.6-4.9,8.6l-3.3,0.9C198,170,190.8,171.9,184.4,171.9z"/>
		<path class="st1" d="M190.8,142.9c-6.2,0-13.4-1.9-22.9-6.1c-3.5-1.6-5.1-5.7-3.6-9.2c1.6-3.5,5.7-5.1,9.2-3.6
			c19.4,8.6,22.4,6.1,38.8-7.9l2.6-2.2c2.9-2.5,7.4-2.1,9.9,0.8c2.5,2.9,2.1,7.4-0.8,9.9l-2.6,2.2
			C209.5,136.9,201.7,142.9,190.8,142.9z"/>
		<path class="st1" d="M175.4,117.5c-2.7,0-5.3-1.6-6.4-4.2c-1.5-3.5,0.1-7.7,3.6-9.2c19.5-8.5,19.6-12.4,20.3-33.9l0.1-3.4
			c0.1-3.9,3.4-6.9,7.3-6.7c3.9,0.1,6.9,3.4,6.7,7.3l-0.1,3.4c-0.9,24.3-2.3,34.7-28.7,46.3C177.3,117.3,176.4,117.5,175.4,117.5z"
			/>
		<path class="st2" d="M128.8,169.8"/>
		<g>
			<ellipse class="st3" cx="134.4" cy="11.9" rx="7" ry="6.7"/>
		</g>
		<circle cx="136" cy="10.5" r="4.7"/>
		<ellipse class="st4" cx="132.6" cy="10.2" rx="1.3" ry="1.2"/>
		<g>
			<ellipse class="st3" cx="162.2" cy="11.9" rx="7" ry="6.7"/>
		</g>
		<circle cx="163.8" cy="10.5" r="4.7"/>
		<ellipse class="st4" cx="160.4" cy="10.2" rx="1.3" ry="1.2"/>
		<g>
			<ellipse class="st3" cx="187" cy="32.3" rx="7" ry="6.7"/>
		</g>
		<circle cx="188.5" cy="30.9" r="4.7"/>
		<ellipse class="st4" cx="185.1" cy="30.9" rx="1.3" ry="1.2"/>
		<g>
			<g>
				<ellipse class="st3" cx="200.1" cy="66.5" rx="7" ry="6.7"/>
			</g>
			<circle cx="201.7" cy="65.1" r="4.7"/>
			<ellipse class="st4" cx="198.3" cy="63.9" rx="1.3" ry="1.2"/>
		</g>
		<g>
			<ellipse class="st3" cx="219.4" cy="119.2" rx="7" ry="7"/>
		</g>
		<circle cx="221" cy="117.5" r="4.7"/>
		<ellipse class="st4" cx="218.9" cy="114.6" rx="1.3" ry="1.2"/>
		<g>
			<ellipse class="st3" cx="208.6" cy="159.8" rx="7" ry="7"/>
		</g>
		<circle cx="210.2" cy="158.1" r="4.7"/>
		<ellipse class="st4" cx="208.6" cy="155.1" rx="1.3" ry="1.2"/>
		<g>
			<ellipse class="st3" cx="170.7" cy="191.7" rx="7" ry="7"/>
		</g>
		<circle cx="172.3" cy="190" r="4.7"/>
		<ellipse class="st4" cx="171.9" cy="186.8" rx="1.3" ry="1.2"/>
	</g>
	<g>
		<path class="st1" d="M119.5,62.8c2.7,0,5.3-1.6,6.4-4.2c1.5-3.5-0.1-7.7-3.6-9.2C102.8,40.8,102.7,37,102,15.4l-0.1-3.4
			c-0.1-3.9-3.4-6.9-7.3-6.7c-3.9,0.1-6.9,3.4-6.7,7.3l0.1,3.4c0.9,24.3,2.3,34.7,28.7,46.3C117.6,62.6,118.5,62.8,119.5,62.8z"/>
		<path class="st1" d="M91.7,62.8c2.7,0,5.3-1.6,6.4-4.2c1.5-3.5-0.1-7.7-3.6-9.2C75,40.8,74.9,37,74.1,15.4L74,12
			c-0.1-3.9-3.4-6.9-7.3-6.7c-3.9,0.1-6.9,3.4-6.7,7.3l0.1,3.4c0.9,24.3,2.3,34.7,28.7,46.3C89.8,62.6,90.7,62.8,91.7,62.8z"/>
		<path class="st1" d="M58.5,198.7c0.6,0,1.3-0.1,1.9-0.3l3.3-0.9c23.4-6.7,33.1-10.5,38-39c0.7-3.8-1.9-7.4-5.7-8.1
			c-3.8-0.7-7.4,1.9-8.1,5.7c-3.6,20.9-7.3,22-28,27.9l-3.3,0.9c-3.7,1.1-5.9,4.9-4.8,8.7C52.7,196.7,55.5,198.7,58.5,198.7z"/>
		<path class="st1" d="M67,83.2c2.7,0,5.3-1.6,6.4-4.2c1.5-3.5-0.1-7.7-3.6-9.2c-19.5-8.5-19.6-12.4-20.3-33.9l-0.1-3.4
			c-0.1-3.9-3.4-6.9-7.3-6.7c-3.9,0.1-6.9,3.4-6.7,7.3l0.1,3.4c0.9,24.3,2.3,34.7,28.7,46.3C65.1,83,66.1,83.2,67,83.2z"/>
		<path class="st1" d="M44.9,171.9c10,0,18.4-4.5,30-17.7c2.6-2.9,2.3-7.3-0.6-9.9c-2.9-2.6-7.3-2.3-9.9,0.6
			c-14,15.9-17.8,14.9-38.5,9l-3.3-0.9c-3.7-1-7.6,1.1-8.6,4.9c-1,3.7,1.1,7.6,4.9,8.6l3.3,0.9C31.2,170,38.4,171.9,44.9,171.9z"/>
		<path class="st1" d="M38.5,142.9c6.2,0,13.4-1.9,22.9-6.1c3.5-1.6,5.1-5.7,3.6-9.2c-1.6-3.5-5.7-5.1-9.2-3.6
			c-19.4,8.6-22.4,6.1-38.8-7.9l-2.6-2.2c-2.9-2.5-7.4-2.1-9.9,0.8c-2.5,2.9-2.1,7.4,0.8,9.9l2.6,2.2
			C19.7,136.9,27.5,142.9,38.5,142.9z"/>
		<path class="st1" d="M53.8,117.5c2.7,0,5.3-1.6,6.4-4.2c1.5-3.5-0.1-7.7-3.6-9.2C37.2,95.5,37,91.7,36.3,70.1l-0.1-3.4
			c-0.1-3.9-3.4-6.9-7.3-6.7c-3.9,0.1-6.9,3.4-6.7,7.3l0.1,3.4c0.9,24.3,2.3,34.7,28.7,46.3C51.9,117.3,52.9,117.5,53.8,117.5z"/>
		<path class="st2" d="M100.5,169.8"/>
		<g>
			<ellipse class="st3" cx="94.8" cy="11.9" rx="7" ry="6.7"/>
		</g>
		<circle cx="93.2" cy="10.5" r="4.7"/>
		<ellipse class="st4" cx="96.7" cy="10.2" rx="1.3" ry="1.2"/>
		<g>
			<ellipse class="st3" cx="67" cy="11.9" rx="7" ry="6.7"/>
		</g>
		<circle cx="65.4" cy="10.5" r="4.7"/>
		<ellipse class="st4" cx="68.9" cy="10.2" rx="1.3" ry="1.2"/>
		<g>
			<ellipse class="st3" cx="42.3" cy="32.3" rx="7" ry="6.7"/>
		</g>
		<circle cx="40.7" cy="30.9" r="4.7"/>
		<ellipse class="st4" cx="44.1" cy="30.9" rx="1.3" ry="1.2"/>
		<g>
			<g>
				<ellipse class="st3" cx="29.2" cy="66.5" rx="7" ry="6.7"/>
			</g>
			<circle cx="27.6" cy="65.1" r="4.7"/>
			<ellipse class="st4" cx="31" cy="63.9" rx="1.3" ry="1.2"/>
		</g>
		<g>
			<ellipse class="st3" cx="9.8" cy="119.2" rx="7" ry="7"/>
		</g>
		<circle cx="8.2" cy="117.5" r="4.7"/>
		<ellipse class="st4" cx="10.3" cy="114.6" rx="1.3" ry="1.2"/>
		<g>
			<ellipse class="st3" cx="20.7" cy="159.8" rx="7" ry="7"/>
		</g>
		<circle cx="19.1" cy="158.1" r="4.7"/>
		<ellipse class="st4" cx="20.7" cy="155.1" rx="1.3" ry="1.2"/>
		<g>
			<ellipse class="st3" cx="58.5" cy="191.7" rx="7" ry="7"/>
		</g>
		<circle cx="57" cy="190" r="4.7"/>
		<ellipse class="st4" cx="57.4" cy="186.8" rx="1.3" ry="1.2"/>
	</g>
	<path class="st5" d="M163.2,73.4c-4.5-6-10-11.1-16.3-15.1c-9.5-6.1-20.9-9.6-33-9.6c-12.3,0-23.7,3.6-33.3,9.8
		c-6.3,4-11.8,9.2-16.2,15.2c-7.6,10.2-12,22.8-12,36.5c0,33.9,27.5,61.5,61.5,61.5c33.9,0,61.5-27.5,61.5-61.5
		C175.3,96.3,170.8,83.6,163.2,73.4z"/>
	<circle class="st3" cx="114" cy="103.1" r="33.3"/>
	<circle cx="114" cy="99.9" r="24.4"/>
	<circle class="st4" cx="132.6" cy="114.6" r="4.7"/>
	<circle class="st4" cx="137.3" cy="106.6" r="2.3"/>
	<circle class="st4" cx="98.7" cy="81.5" r="2.3"/>
	<path class="st6" d="M89.5,146.5c0,0,24.7-11.5,47.7,0"/>
	<path class="st4" d="M99.1,142.2l-1.7-3.3l-1.7-3.3l-0.3,3.7l-0.3,3.7l0,0c0,0.1,0,0.2,0,0.3c0.2,1.1,1.3,1.8,2.4,1.6
		c1.1-0.2,1.8-1.3,1.6-2.4C99.1,142.4,99.1,142.3,99.1,142.2L99.1,142.2z"/>
	<path class="st4" d="M102.5,141.9l-1.4-2.7l-1.4-2.7l-0.2,3l-0.2,3l0,0c0,0.1,0,0.2,0,0.2c0.2,0.9,1.1,1.5,2,1.3
		c0.9-0.2,1.5-1.1,1.3-2C102.5,142,102.5,142,102.5,141.9L102.5,141.9z"/>
	<path class="st4" d="M128.6,142.2l1.7-3.3l1.7-3.3l0.3,3.7l0.3,3.7l0,0c0,0.1,0,0.2,0,0.3c-0.2,1.1-1.3,1.8-2.4,1.6
		c-1.1-0.2-1.8-1.3-1.6-2.4C128.6,142.4,128.6,142.3,128.6,142.2L128.6,142.2z"/>
	<path class="st4" d="M125.2,141.9l1.4-2.7l1.4-2.7l0.2,3l0.2,3l0,0c0,0.1,0,0.2,0,0.2c-0.2,0.9-1.1,1.5-2,1.3
		c-0.9-0.2-1.5-1.1-1.3-2C125.2,142,125.2,142,125.2,141.9L125.2,141.9z"/>
</g>
</svg>
