<?xml version="1.0" encoding="utf-8"?>
<!-- Generator: Adobe Illustrator 23.1.1, SVG Export Plug-In . SVG Version: 6.00 Build 0)  -->
<svg version="1.1" id="Layer_2" xmlns="http://www.w3.org/2000/svg" xmlns:xlink="http://www.w3.org/1999/xlink" x="0px" y="0px"
	 viewBox="0 0 229.8 203.8" style="enable-background:new 0 0 229.8 203.8;" xml:space="preserve">
<style type="text/css">
	.st0{fill:#5B4172;}
	.st1{fill:#7D579A;}
	.st2{fill:#8B68AA;}
	.st3{fill:#47345B;}
	.st4{fill:#E03F90;}
	.st5{fill:#FFFFFF;}
	.st6{fill:#D8DF25;}
</style>
<polygon class="st0" points="59.9,107.4 53.1,115.5 35.2,115.5 59.9,92 "/>
<polygon class="st0" points="174.9,115.5 166.3,107.4 166.3,92 191,115.5 "/>
<rect x="59.9" y="82.7" class="st1" width="106.3" height="24.7"/>
<path class="st2" d="M56.4,36h110.3c0,0,24.3,8.5,24.3,21.4s0,42.4,0,42.4h-31.1c0,0-12.8-23.6-48.4-16.9S69,99.9,69,99.9H35.2
	c0,0,0-30.3,0-42.4C35.2,41.9,56.4,36,56.4,36z"/>
<path class="st3" d="M174.9,115.5h-22c0,0-17.5,35.4-41.4,34.3S76,115.5,76,115.5H53.1l6.8-8h106.3L174.9,115.5z"/>
<path class="st0" d="M51.6,99.9c0,0,2.1,0.4,15.3-5c1.5-0.6,12.2-10.3,23-12.9c0,0,7.4-2,11.1-0.9c0,0,8.4-4.1,16.5-2
	c0,0,7.7-1.8,13.7-0.6c0,0,9.4-1.1,14.4,5.2c0,0,8.1,2,13.8,9.3c0,0,4.5,0.8,6.8,2.7c0,0,8-1,8.5,4L51.6,99.9z"/>
<path class="st4" d="M63.9,99.8c-2.5,2.9-7.3,0.7-7.3,3.9c0,15.6,32.9,27.3,57.9,27.3s48-9.8,48-25.4c0-3.8-1.4-7.6-3.9-11.2
	l-15.8-8.8l-14.1-1.6l-40,4.8L63.9,99.8z"/>
<path class="st2" d="M191,115.5h-38.1c0,0-15.8,17.4-40.5,17.4S76,115.5,76,115.5H35.2l10,66.2H181L191,115.5z"/>
<g>
	<path class="st3" d="M127.9,126.2c0.5-2.2,6.4-12.6,6.4-17.1c0-7.5-6.1-13.6-13.6-13.6c-3.8,0-7.3,1.6-9.7,4.1
		c-2.5-2.5-5.9-4.1-9.7-4.1c-7.5,0-13.6,6.1-13.6,13.6c0,12.9,6.8,18.7,6.8,18.7s-8.2,20.5,13.1,33.9c21.3,13.5,19,34.6,22.9,34.6
		c3.9,0,9.8-21.1-1.5-35.7C117.5,146.1,127.9,126.2,127.9,126.2z"/>
	<g>
		<path class="st2" d="M112.3,123.1c-1.3-1.7-2.4-3.5-3.3-5.4c-0.9-1.9-1.5-4-1.8-6.1c-0.3-2.1-0.2-4.3,0.4-6.4
			c0.6-2.1,1.8-3.9,3.2-5.5c0,0,0,0,0.1,0c0,0,0,0,0,0l0,0c-0.3,0.5-0.5,0.9-0.8,1.4l-0.4,0.7c-0.1,0.2-0.2,0.5-0.3,0.7
			c-0.2,0.5-0.4,1-0.6,1.4l-0.4,1.5c-0.5,2-0.8,4.1-0.6,6.1c0.2,2.1,0.7,4.1,1.5,6C110.1,119.4,111.1,121.3,112.3,123.1
			C112.4,123,112.4,123.1,112.3,123.1C112.3,123.1,112.3,123.1,112.3,123.1z"/>
	</g>
</g>
<g>
	<g>
		<path class="st5" d="M69.3,99.1l1.7,3.3l1.7,3.3L73,102l0.3-3.7l0,0c0-0.1,0-0.2,0-0.3c-0.2-1.1-1.3-1.8-2.4-1.6
			c-1.1,0.2-1.8,1.3-1.6,2.4C69.3,98.9,69.3,99,69.3,99.1L69.3,99.1z"/>
		<path class="st5" d="M73.4,96.5l1.7,3.3l1.7,3.3l0.3-3.7l0.3-3.7l0,0c0-0.1,0-0.2,0-0.3c-0.2-1.1-1.3-1.8-2.4-1.6
			c-1.1,0.2-1.8,1.3-1.6,2.4C73.3,96.3,73.3,96.4,73.4,96.5L73.4,96.5z"/>
		<path class="st5" d="M77.4,93.6l1.7,3.3l1.7,3.3l0.3-3.7l0.3-3.7l0,0c0-0.1,0-0.2,0-0.3c-0.2-1.1-1.3-1.8-2.4-1.6
			c-1.1,0.2-1.8,1.3-1.6,2.4C77.4,93.4,77.4,93.5,77.4,93.6L77.4,93.6z"/>
		<path class="st5" d="M82.1,91l1.7,3.3l1.7,3.3l0.3-3.7l0.3-3.7l0,0c0-0.1,0-0.2,0-0.3c-0.2-1.1-1.3-1.8-2.4-1.6
			c-1.1,0.2-1.8,1.3-1.6,2.4C82,90.8,82.1,90.9,82.1,91L82.1,91z"/>
		<path class="st5" d="M86.8,88l1.7,3.3l1.7,3.3l0.3-3.7l0.3-3.7l0,0c0-0.1,0-0.2,0-0.3c-0.2-1.1-1.3-1.8-2.4-1.6
			c-1.1,0.2-1.8,1.3-1.6,2.4C86.7,87.8,86.8,87.9,86.8,88L86.8,88z"/>
	</g>
	<path class="st5" d="M90,87.8l1.6,4.7l1.6,4.7l1.1-4.8l1.1-4.8l0,0c0-0.1,0-0.3,0-0.4c-0.1-1.5-1.3-2.6-2.8-2.5
		c-1.5,0.1-2.6,1.3-2.5,2.8C90,87.5,90,87.7,90,87.8L90,87.8z"/>
	<path class="st5" d="M85.9,88.9l1.6,4.7l1.6,4.7l1.1-4.8l1.1-4.8l0,0c0-0.1,0-0.3,0-0.4c-0.1-1.5-1.3-2.6-2.8-2.5
		c-1.5,0.1-2.6,1.3-2.5,2.8C85.9,88.6,85.9,88.8,85.9,88.9L85.9,88.9z"/>
	<path class="st5" d="M117.6,84l0.7,4.9l0.7,4.9l1.9-4.6l1.9-4.6l0,0c0-0.1,0.1-0.3,0.1-0.4c0.2-1.5-0.9-2.8-2.3-3
		c-1.5-0.2-2.8,0.9-3,2.3C117.6,83.7,117.6,83.8,117.6,84L117.6,84z"/>
	<path class="st5" d="M112.2,84.4l1.6,4.7l1.6,4.7l1.1-4.8l1.1-4.8l0,0c0-0.1,0-0.3,0-0.4c-0.1-1.5-1.3-2.6-2.8-2.5
		c-1.5,0.1-2.6,1.3-2.5,2.8C112.2,84.2,112.2,84.3,112.2,84.4L112.2,84.4z"/>
	<path class="st5" d="M107.2,85.2l1.6,4.7l1.6,4.7l1.1-4.8l1.1-4.8l0,0c0-0.1,0-0.3,0-0.4c-0.1-1.5-1.3-2.6-2.8-2.5
		c-1.5,0.1-2.6,1.3-2.5,2.8C107.2,84.9,107.2,85.1,107.2,85.2L107.2,85.2z"/>
	<path class="st5" d="M159.5,97.4l-1.7,3.3l-1.7,3.3l-0.3-3.7l-0.3-3.7l0,0c0-0.1,0-0.2,0-0.3c0.2-1.1,1.3-1.8,2.4-1.6
		c1.1,0.2,1.8,1.3,1.6,2.4C159.5,97.2,159.5,97.3,159.5,97.4L159.5,97.4z"/>
	<path class="st5" d="M157.4,94.8l-1.7,3.3l-1.7,3.3l-0.3-3.7l-0.3-3.7l0,0c0-0.1,0-0.2,0-0.3c0.2-1.1,1.3-1.8,2.4-1.6
		c1.1,0.2,1.8,1.3,1.6,2.4C157.5,94.6,157.4,94.7,157.4,94.8L157.4,94.8z"/>
	<path class="st5" d="M154.4,91.9l-1.7,3.3l-1.7,3.3l-0.3-3.7l-0.3-3.7l0,0c0-0.1,0-0.2,0-0.3c0.2-1.1,1.3-1.8,2.4-1.6
		c1.1,0.2,1.8,1.3,1.6,2.4C154.4,91.7,154.4,91.8,154.4,91.9L154.4,91.9z"/>
	<path class="st5" d="M147.7,88.3l-1.7,3.3l-1.7,3.3l-0.3-3.7l-0.3-3.7l0,0c0-0.1,0-0.2,0-0.3c0.2-1.1,1.3-1.8,2.4-1.6
		c1.1,0.2,1.8,1.3,1.6,2.4C147.7,88.1,147.7,88.2,147.7,88.3L147.7,88.3z"/>
	<path class="st5" d="M144,86.3l-1.7,3.3l-1.7,3.3l-0.3-3.7l-0.3-3.7l0,0c0-0.1,0-0.2,0-0.3c0.2-1.1,1.3-1.8,2.4-1.6
		c1.1,0.2,1.8,1.3,1.6,2.4C144.1,86.1,144,86.2,144,86.3L144,86.3z"/>
	<path class="st5" d="M128.8,87l2.8,10.1l2.8,10.1l2.9-10.1l2.9-10.1l-0.1,0c0-0.3,0.1-0.6,0.1-0.9c0-3.1-2.5-5.7-5.7-5.7
		c-3.1,0-5.7,2.5-5.7,5.7C128.8,86.4,128.9,86.7,128.8,87L128.8,87z"/>
	<path class="st5" d="M150.7,90.2l-1.7,3.3l-1.7,3.3l-0.3-3.7l-0.3-3.7l0,0c0-0.1,0-0.2,0-0.3c0.2-1.1,1.3-1.8,2.4-1.6
		c1.1,0.2,1.8,1.3,1.6,2.4C150.8,90,150.7,90.1,150.7,90.2L150.7,90.2z"/>
	<path class="st5" d="M102.8,85.7l2.3,4.4l2.3,4.4l0.3-4.9l0.3-4.9l0,0c0-0.1,0-0.3,0-0.4c-0.3-1.5-1.7-2.4-3.2-2.1
		c-1.5,0.3-2.4,1.7-2.1,3.2C102.7,85.4,102.7,85.6,102.8,85.7L102.8,85.7z"/>
	<path class="st5" d="M123.3,84.4l1.6,4.7l1.6,4.7l1.1-4.8l1.1-4.8l0,0c0-0.1,0-0.3,0-0.4c-0.1-1.5-1.3-2.6-2.8-2.5
		c-1.5,0.1-2.6,1.3-2.5,2.8C123.2,84.1,123.3,84.2,123.3,84.4L123.3,84.4z"/>
	<path class="st5" d="M127,82.9l0.7,3l0.7,3l1-2.9l1-2.9l0,0c0-0.1,0-0.2,0-0.3c0-0.9-0.7-1.7-1.6-1.7c-0.9,0-1.7,0.7-1.7,1.6
		C127,82.7,127,82.8,127,82.9L127,82.9z"/>
	<g>
		<path class="st5" d="M152.8,114.8l-1.7-3.3l-1.7-3.3l-0.3,3.7l-0.3,3.7l0,0c0,0.1,0,0.2,0,0.3c0.2,1.1,1.3,1.8,2.4,1.6
			c1.1-0.2,1.8-1.3,1.6-2.4C152.8,115,152.8,114.9,152.8,114.8L152.8,114.8z"/>
		<path class="st5" d="M148.7,117.4l-1.7-3.3l-1.7-3.3l-0.3,3.7l-0.3,3.7l0,0c0,0.1,0,0.2,0,0.3c0.2,1.1,1.3,1.8,2.4,1.6
			c1.1-0.2,1.8-1.3,1.6-2.4C148.7,117.6,148.7,117.5,148.7,117.4L148.7,117.4z"/>
		<path class="st5" d="M144.7,120.3L143,117l-1.7-3.3l-0.3,3.7l-0.3,3.7l0,0c0,0.1,0,0.2,0,0.3c0.2,1.1,1.3,1.8,2.4,1.6
			c1.1-0.2,1.8-1.3,1.6-2.4C144.7,120.5,144.7,120.4,144.7,120.3L144.7,120.3z"/>
		<path class="st5" d="M140,122.9l-1.7-3.3l-1.7-3.3l-0.3,3.7l-0.3,3.7l0,0c0,0.1,0,0.2,0,0.3c0.2,1.1,1.3,1.8,2.4,1.6
			c1.1-0.2,1.8-1.3,1.6-2.4C140,123.1,140,123,140,122.9L140,122.9z"/>
		<path class="st5" d="M135.3,125.9l-1.7-3.3l-1.7-3.3l-0.3,3.7l-0.3,3.7l0,0c0,0.1,0,0.2,0,0.3c0.2,1.1,1.3,1.8,2.4,1.6
			c1.1-0.2,1.8-1.3,1.6-2.4C135.3,126.1,135.3,126,135.3,125.9L135.3,125.9z"/>
	</g>
	<g>
		<path class="st5" d="M74,114.8l1.7-3.3l1.7-3.3l0.3,3.7l0.3,3.7l0,0c0,0.1,0,0.2,0,0.3c-0.2,1.1-1.3,1.8-2.4,1.6
			c-1.1-0.2-1.8-1.3-1.6-2.4C73.9,115,74,114.9,74,114.8L74,114.8z"/>
		<path class="st5" d="M78,117.4l1.7-3.3l1.7-3.3l0.3,3.7l0.3,3.7l0,0c0,0.1,0,0.2,0,0.3c-0.2,1.1-1.3,1.8-2.4,1.6
			c-1.1-0.2-1.8-1.3-1.6-2.4C78,117.6,78,117.5,78,117.4L78,117.4z"/>
		<path class="st5" d="M82.1,120.3l1.7-3.3l1.7-3.3l0.3,3.7l0.3,3.7l0,0c0,0.1,0,0.2,0,0.3c-0.2,1.1-1.3,1.8-2.4,1.6
			c-1.1-0.2-1.8-1.3-1.6-2.4C82,120.5,82.1,120.4,82.1,120.3L82.1,120.3z"/>
		<path class="st5" d="M86.8,122.9l1.7-3.3l1.7-3.3l0.3,3.7l0.3,3.7l0,0c0,0.1,0,0.2,0,0.3c-0.2,1.1-1.3,1.8-2.4,1.6
			c-1.1-0.2-1.8-1.3-1.6-2.4C86.7,123.1,86.8,123,86.8,122.9L86.8,122.9z"/>
		<path class="st5" d="M91.4,125.9l1.7-3.3l1.7-3.3l0.3,3.7l0.3,3.7l0,0c0,0.1,0,0.2,0,0.3c-0.2,1.1-1.3,1.8-2.4,1.6
			c-1.1-0.2-1.8-1.3-1.6-2.4C91.4,126.1,91.4,126,91.4,125.9L91.4,125.9z"/>
	</g>
	<path class="st5" d="M93.5,89.6l2.8,10.1l2.8,10.1l2.9-10.1l2.9-10.1l-0.1,0c0-0.3,0.1-0.6,0.1-0.9c0-3.1-2.5-5.7-5.7-5.7
		c-3.1,0-5.7,2.5-5.7,5.7C93.5,89,93.6,89.3,93.5,89.6L93.5,89.6z"/>
	<path class="st5" d="M63.8,99.8l1.6,4.7l1.6,4.7l1.1-4.8l1.1-4.8l0,0c0-0.1,0-0.3,0-0.4c-0.1-1.5-1.3-2.6-2.8-2.5
		c-1.5,0.1-2.6,1.3-2.5,2.8C63.8,99.5,63.8,99.7,63.8,99.8L63.8,99.8z"/>
	<path class="st5" d="M60.2,100.7l1.1,3.2l1.1,3.2l0.8-3.3l0.8-3.3l0,0c0-0.1,0-0.2,0-0.3c-0.1-1-0.9-1.8-2-1.8
		c-1,0.1-1.8,0.9-1.8,2C60.2,100.6,60.2,100.7,60.2,100.7L60.2,100.7z"/>
	<path class="st5" d="M56.6,100.7l1.1,3.2l1.1,3.2l0.8-3.3l0.8-3.3l0,0c0-0.1,0-0.2,0-0.3c-0.1-1-0.9-1.8-2-1.8
		c-1,0.1-1.8,0.9-1.8,2C56.6,100.5,56.6,100.6,56.6,100.7L56.6,100.7z"/>
	<path class="st5" d="M54.1,100.3L55,103l0.9,2.7l0.6-2.8l0.6-2.8l0,0c0-0.1,0-0.2,0-0.2c0-0.9-0.8-1.5-1.6-1.5
		c-0.9,0-1.5,0.8-1.5,1.6C54.1,100.1,54.1,100.2,54.1,100.3L54.1,100.3z"/>
	<path class="st5" d="M158.2,115.9l-1.6-4.7l-1.6-4.7l-1.1,4.8l-1.1,4.8l0,0c0,0.1,0,0.3,0,0.4c0.1,1.5,1.3,2.6,2.8,2.5
		c1.5-0.1,2.6-1.3,2.5-2.8C158.3,116.2,158.2,116.1,158.2,115.9L158.2,115.9z"/>
	<path class="st5" d="M161.8,115l-1.1-3.2l-1.1-3.2l-0.8,3.3l-0.8,3.3l0,0c0,0.1,0,0.2,0,0.3c0.1,1,0.9,1.8,2,1.8
		c1-0.1,1.8-0.9,1.8-2C161.8,115.2,161.8,115.1,161.8,115L161.8,115z"/>
	<path class="st5" d="M165.5,115.1l-1.1-3.2l-1.1-3.2l-0.8,3.3l-0.8,3.3l0,0c0,0.1,0,0.2,0,0.3c0.1,1,0.9,1.8,2,1.8
		c1-0.1,1.8-0.9,1.8-2C165.5,115.3,165.5,115.2,165.5,115.1L165.5,115.1z"/>
	<path class="st5" d="M168,115.4l-0.9-2.7l-0.9-2.7l-0.6,2.8l-0.6,2.8l0,0c0,0.1,0,0.2,0,0.2c0,0.9,0.8,1.5,1.6,1.5
		c0.9,0,1.5-0.8,1.5-1.6C168,115.6,168,115.5,168,115.4L168,115.4z"/>
	<path class="st5" d="M163.3,98.8l-1.6,4.7l-1.6,4.7l-1.1-4.8l-1.1-4.8l0,0c0-0.1,0-0.3,0-0.4c0.1-1.5,1.3-2.6,2.8-2.5
		c1.5,0.1,2.6,1.3,2.5,2.8C163.3,98.6,163.3,98.7,163.3,98.8L163.3,98.8z"/>
	<path class="st5" d="M166.9,99.8l-1.1,3.2l-1.1,3.2l-0.8-3.3l-0.8-3.3l0,0c0-0.1,0-0.2,0-0.3c0.1-1,0.9-1.8,2-1.8
		c1,0.1,1.8,0.9,1.8,2C166.9,99.6,166.9,99.7,166.9,99.8L166.9,99.8z"/>
	<path class="st5" d="M170.5,99.7l-1.1,3.2l-1.1,3.2l-0.8-3.3l-0.8-3.3l0,0c0-0.1,0-0.2,0-0.3c0.1-1,0.9-1.8,2-1.8
		c1,0.1,1.8,0.9,1.8,2C170.5,99.5,170.5,99.6,170.5,99.7L170.5,99.7z"/>
	<path class="st5" d="M173,99.3l-0.9,2.7l-0.9,2.7l-0.6-2.8l-0.6-2.8l0,0c0-0.1,0-0.2,0-0.2c0-0.9,0.8-1.5,1.6-1.5
		c0.9,0,1.5,0.8,1.5,1.6C173,99.2,173,99.3,173,99.3L173,99.3z"/>
	<path class="st5" d="M68.7,115.1l1.6-4.7l1.6-4.7l1.1,4.8l1.1,4.8l0,0c0,0.1,0,0.3,0,0.4c-0.1,1.5-1.3,2.6-2.8,2.5
		c-1.5-0.1-2.6-1.3-2.5-2.8C68.7,115.4,68.7,115.2,68.7,115.1L68.7,115.1z"/>
	<path class="st5" d="M65.1,114.1l1.1-3.2l1.1-3.2l0.8,3.3l0.8,3.3l0,0c0,0.1,0,0.2,0,0.3c-0.1,1-0.9,1.8-2,1.8
		c-1-0.1-1.8-0.9-1.8-2C65.1,114.3,65.1,114.2,65.1,114.1L65.1,114.1z"/>
	<path class="st5" d="M61.4,114.2l1.1-3.2l1.1-3.2l0.8,3.3l0.8,3.3l0,0c0,0.1,0,0.2,0,0.3c-0.1,1-0.9,1.8-2,1.8
		c-1-0.1-1.8-0.9-1.8-2C61.4,114.4,61.5,114.3,61.4,114.2L61.4,114.2z"/>
	<path class="st5" d="M58.9,114.6l0.9-2.7l0.9-2.7l0.6,2.8l0.6,2.8l0,0c0,0.1,0,0.2,0,0.2c0,0.9-0.8,1.5-1.6,1.5
		c-0.9,0-1.5-0.8-1.5-1.6C58.9,114.8,59,114.7,58.9,114.6L58.9,114.6z"/>
</g>
<g>
	<g>
		<path class="st6" d="M82.2,55.9c-2,0-3.7,0.8-4.7,2.1c-0.1,0.4-0.2,0.8-0.2,1.2c0,2.5,2.1,4.6,4.6,4.6c2.5,0,4.6-2.1,4.6-4.6
			c0-0.7-0.2-1.3-0.4-1.9C85.2,56.4,83.8,55.9,82.2,55.9z"/>
		<circle cx="82" cy="59.2" r="1.2"/>
	</g>
	<g>
		<path class="st6" d="M140.3,56.4c-2,0-3.7,0.8-4.7,2.1c-0.1,0.4-0.2,0.8-0.2,1.2c0,2.5,2.1,4.6,4.6,4.6c2.5,0,4.6-2.1,4.6-4.6
			c0-0.7-0.2-1.3-0.4-1.9C143.3,56.9,141.9,56.4,140.3,56.4z"/>
		<circle cx="140.1" cy="59.7" r="1.2"/>
	</g>
	<g>
		<path class="st6" d="M111.2,59.8c-2,0-3.7,0.8-4.7,2.1c-0.1,0.4-0.2,0.8-0.2,1.2c0,2.5,2.1,4.6,4.6,4.6c2.5,0,4.6-2.1,4.6-4.6
			c0-0.7-0.2-1.3-0.4-1.9C114.2,60.4,112.8,59.8,111.2,59.8z"/>
		<circle cx="111" cy="63.1" r="1.2"/>
	</g>
	<g>
		<path class="st6" d="M96.6,56.4c-1.1,0-2,0.5-2.5,1.1c-0.1,0.2-0.1,0.4-0.1,0.6c0,1.4,1.1,2.5,2.5,2.5c1.4,0,2.5-1.1,2.5-2.5
			c0-0.4-0.1-0.7-0.2-1C98.2,56.7,97.5,56.4,96.6,56.4z"/>
		<circle cx="96.5" cy="58.1" r="0.6"/>
	</g>
	<g>
		<path class="st6" d="M127.9,55.1c-1.1,0-2,0.5-2.5,1.1c-0.1,0.2-0.1,0.4-0.1,0.6c0,1.4,1.1,2.5,2.5,2.5c1.4,0,2.5-1.1,2.5-2.5
			c0-0.4-0.1-0.7-0.2-1C129.5,55.4,128.8,55.1,127.9,55.1z"/>
		<circle cx="127.8" cy="56.9" r="0.6"/>
	</g>
	<g>
		<path class="st6" d="M149.4,64.1c-1.1,0-2,0.5-2.5,1.1c-0.1,0.2-0.1,0.4-0.1,0.6c0,1.4,1.1,2.5,2.5,2.5c1.4,0,2.5-1.1,2.5-2.5
			c0-0.4-0.1-0.7-0.2-1C151,64.4,150.3,64.1,149.4,64.1z"/>
		<circle cx="149.3" cy="65.9" r="0.6"/>
	</g>
	<g>
		<path class="st6" d="M74,61c-1.1,0-2,0.5-2.5,1.1c-0.1,0.2-0.1,0.4-0.1,0.6c0,1.4,1.1,2.5,2.5,2.5c1.4,0,2.5-1.1,2.5-2.5
			c0-0.4-0.1-0.7-0.2-1C75.6,61.3,74.8,61,74,61z"/>
		<circle cx="73.9" cy="62.8" r="0.6"/>
	</g>
	<g>
		<path class="st6" d="M101.6,64.1c-1.1,0-2,0.5-2.5,1.1C99,65.5,99,65.7,99,65.9c0,1.4,1.1,2.5,2.5,2.5c1.4,0,2.5-1.1,2.5-2.5
			c0-0.4-0.1-0.7-0.2-1C103.2,64.4,102.4,64.1,101.6,64.1z"/>
		<circle cx="101.5" cy="65.9" r="0.6"/>
	</g>
</g>
</svg>
