<?xml version="1.0" encoding="utf-8"?>
<!-- Generator: Adobe Illustrator 23.1.1, SVG Export Plug-In . SVG Version: 6.00 Build 0)  -->
<svg version="1.1" xmlns="http://www.w3.org/2000/svg" xmlns:xlink="http://www.w3.org/1999/xlink" x="0px" y="0px"
	 viewBox="0 0 229.8 203.8" style="enable-background:new 0 0 229.8 203.8;" xml:space="preserve">
<style type="text/css">
	.st0{display:none;}
	.st1{fill:#4C9034;}
	.st2{fill:#D9E026;}
	.st3{fill:#FFFFFF;}
	.st4{fill:#006937;}
	.st5{fill:#86B06F;}
</style>
<g id="Layer_1" class="st0">
	
		<image style="display:inline;overflow:visible;" width="2364" height="1322" xlink:href="../../../Screenshot 2020-02-02 at 00.11.02.png"  transform="matrix(0.5 0 0 0.5 -26.4796 -26.4812)">
	</image>
</g>
<g id="Layer_2">
	<path d="M114,108.5L114,108.5c21.7,16.5,12.6,72.1,25,70.9c3.3-0.3,4.3-6,3.8-14.3c1.3,6.8,3.1,11.1,6.6,10.8
		c2.5-0.2,3.6-3.5,3.9-8.6c1.4,11.5,3,20,7.9,19.5c4.3-0.4,4.6-10.1,2.9-22.8c0.1,0,0.1,0.1,0.2,0.1c1.6,2.5,3.4,3.8,5.8,3.5
		c1-0.1,1.7-0.6,2.3-1.4c1.2,6.1,3,9.9,6.4,9.6c4.3-0.4,4.6-10.2,2.9-22.9c1.6,2.7,3.5,4.1,5.9,3.8c5-0.7,4-11,0.3-24.2
		c3.3,7.6,5.4,9.7,6.1,0c0.1-1.5,0.1-3.1,0.1-4.7c1.2-0.7,2.5-2.9,3.7-7.1c9.5-32.3-30.3-74.2-37.7-77.1c-1.2-0.5-2.5-0.8-3.8-0.8
		c-4.7,0.1-8.5,4-8.4,8.8c0,1.4,0.4,2.8,1.1,3.9c-0.8,0.6-1.4,1.4-1.9,2.2c-1.9-1.7-3.5-2.7-4.5-3.1c-1.2-0.5-2.5-0.8-3.8-0.8
		c-4.7,0.1-8.5,4-8.4,8.8c0,1.4,0.4,2.8,1.1,3.9c-1.9,1.6-3.1,4-3.1,6.6c0,3.8,2.5,7,5.9,8.2l0,0c0.4,0.2,0.8,0.4,1.2,0.6
		c-3.5,0.3-6.6,2.8-7.5,6.3c-0.1,0.4-0.2,0.8-0.2,1.2c-2.5,0.4-4.6,1.9-5.9,4c-0.3-0.1-0.6-0.2-0.9-0.3c-4.6-1.2-9.3,1.5-10.5,6.1
		C109.3,102.8,110.9,106.6,114,108.5z M132.8,115.9c4.3,8.8,6.2,20.2,7.5,30.7C138.4,136.3,135.6,125.2,132.8,115.9z"/>
	<path d="M118,99.1c-1.2-4.6-5.9-7.3-10.5-6.1c-0.3,0.1-0.6,0.2-0.9,0.3c-1.3-2.2-3.5-3.6-5.9-4c0-0.4-0.1-0.8-0.2-1.2
		c-0.9-3.6-4-6-7.5-6.3c0.4-0.2,0.8-0.4,1.2-0.6l0,0c3.4-1.1,5.9-4.3,5.9-8.2c0-2.7-1.2-5.1-3.1-6.6c0.6-1.2,1-2.5,1.1-3.9
		c0.1-4.7-3.6-8.7-8.4-8.8c-1.4,0-2.7,0.3-3.8,0.8c-1,0.4-2.6,1.5-4.5,3.1c-0.5-0.8-1.1-1.6-1.9-2.2c0.6-1.2,1-2.5,1.1-3.9
		c0.1-4.7-3.6-8.7-8.4-8.8c-1.4,0-2.7,0.3-3.8,0.8c-7.4,2.9-47.3,44.8-37.7,77.1c1.2,4.2,2.4,6.4,3.7,7.1c-0.1,1.6,0,3.1,0.1,4.7
		c0.7,9.7,2.8,7.6,6.1,0c-3.7,13.1-4.7,23.5,0.3,24.2c2.4,0.3,4.3-1.1,5.9-3.8c-1.7,12.8-1.4,22.5,2.9,22.9c3.4,0.3,5.2-3.5,6.4-9.6
		c0.5,0.8,1.3,1.3,2.3,1.4c2.3,0.3,4.2-1,5.8-3.5c0.1,0,0.1-0.1,0.2-0.1c-1.7,12.7-1.4,22.4,2.9,22.8c5,0.5,6.5-8,7.9-19.5
		c0.2,5.1,1.4,8.4,3.9,8.6c3.6,0.3,5.4-4,6.6-10.8c-0.5,8.3,0.5,14,3.8,14.3c12.5,1.2,3.3-54.4,25-70.9l0,0
		C117.3,106.6,118.9,102.8,118,99.1z M88,146.6c1.3-10.5,3.2-21.8,7.5-30.7C92.7,125.2,89.9,136.3,88,146.6z"/>
	<path class="st1" d="M168,7.1l-10,41.7c-3.8-4.2-8.1-7.9-12.9-11c-9.5-6.1-20.9-9.6-33-9.6c-12.3,0-23.7,3.6-33.3,9.8
		c-4.7,3-9,6.7-12.7,10.8l-10-41.7c0,0-29.3,47.1-2.5,60.5c0.3,0.2,0.6,0.3,0.9,0.4c-1.6,4.3-2.8,8.9-3.4,13.6
		c5.8,1.1,23,5.2,31.8,17.8c0,0-22.2-7.7-32.3-8.5c0,1.6,0.2,3.3,0.3,4.9c6.8,0.2,23.1,1.8,33.3,12.1c0,0-20.9-3.5-31.7-3
		c6.8,26.5,30.9,46.1,59.5,46.1c28.6,0,52.7-19.6,59.5-46.1c-10.8-0.4-31.3,3-31.3,3c10-10.2,26-11.9,33-12.1
		c0.2-1.6,0.2-3.2,0.3-4.9c-10.3,0.9-32,8.5-32,8.5c8.6-12.4,25.4-16.6,31.5-17.7c-0.6-4.7-1.8-9.3-3.4-13.7
		c0.3-0.1,0.6-0.3,0.9-0.4C197.4,54.2,168,7.1,168,7.1z"/>
	<path d="M90.5,120.5c0.4-1.8,1-3.3,1.7-4.6c0.7-1.3,1.5-2.5,2.4-3.5c0.9-1,1.9-1.9,2.9-2.6c1-0.7,2.1-1.2,3.3-1.4
		c7-2.9,10.4-3.7,20.9-3.7c2.4,0.1,5,0.4,7.2,1.7c0.6,0.3,1.1,0.7,1.6,1.1c0.5,0.4,1.1,0.8,1.6,1.3c0.5,0.5,1,1,1.5,1.5
		c0.5,0.5,0.9,1.1,1.3,1.7c1.7,2.3,3,5.1,3.8,8.5c0.1,0.4-0.1,0.8-0.4,0.9c-0.1,0-0.1,0-0.2,0l0,0c-1.4,0-2.5-0.3-3.6-0.5
		c-1.1-0.2-2.2-0.5-3.2-0.7c-2-0.6-3.9-1-5.7-1.7c-1.8-0.6-3.4-1.7-5.2-2.5c-0.9-0.4-1.8-0.8-2.8-1.2c-0.9-0.5-1.9-1.1-2.9-1.6
		c-2-1.1-4.2-1.4-6.2-0.4c-2,0.9-3.6,3.5-5.2,5.1c-0.8,0.8-1.7,1.3-2.6,1.8c-0.9,0.4-1.9,0.8-2.9,1.1c-2,0.6-4.2,1-6.8,0.7l0,0
		c-0.3,0-0.6-0.4-0.5-0.8C90.4,120.6,90.5,120.6,90.5,120.5z"/>
	<circle cx="133.8" cy="71.3" r="16.7"/>
	<circle cx="92.9" cy="71.3" r="16.7"/>
	<circle cx="133.8" cy="76.3" r="16.7"/>
	<circle cx="92.9" cy="76.3" r="16.7"/>
	<circle class="st2" cx="92.9" cy="74.3" r="16.7"/>
	<circle cx="92.9" cy="72.8" r="3.3"/>
	<circle class="st2" cx="133.8" cy="74.3" r="16.7"/>
	<circle cx="133.8" cy="72.8" r="3.3"/>
	<path class="st3" d="M126,105.3C126,105.3,126,105.3,126,105.3c-1.4-0.4-2.8-0.5-4.2-0.5c-10.6,0-14,0.7-20.9,3.7
		c-1.2,0.1-2.3,0.6-3.3,1.4c-1,0.7-2,1.6-2.9,2.6c-0.9,1-1.7,2.1-2.4,3.5c-0.2,0.4-0.5,0.9-0.7,1.4l0.3,0.6l1.4,2.7l0.2-3l0.1-2
		l1.3,2.5l0.2-3l0.1-1.1l0.5,0.9l1.4,2.7l0.2-3l0.2-2.5l1.8,2.3l2.3,2.9l-0.4-3.7l-0.4-3.6l1,1.2l1.9,2.4l-0.4-3l-0.3-2.5l0.8,1.6
		l1.7,3.3l0.3-3.7l0.1-1.5l0.8,1.9l1.5,3.4l0.5-3.7l0.1-1.1l0,0.1l1.2,3.5l0.8-3.6l0.2-0.8l0.3,0.9l1.2,3.5l0.8-3.6l0.3-1.6l0.1,0.8
		l0.5,3l1.2-2.8l0.7-1.7l0.4,2.8l0.6,3.8l1.5-3.5l0.8-1.8l0.2,1.6l0.6,3.8l1.5-3.5l1.2-2.8l0.3,1.8l0.5,3l1.2-2.8L126,105.3
		L126,105.3z"/>
	<path class="st3" d="M130.5,113l1.5-2l1-1.3c-0.3-0.3-0.5-0.5-0.8-0.8c-0.5-0.5-1-0.9-1.6-1.3c-0.5-0.4-1.1-0.8-1.6-1.1
		c-0.1,0-0.1-0.1-0.2-0.1c-0.3,0.3-0.6,0.6-0.6,1.1c0,0.1,0,0.2,0,0.3l0,0l0.5,3l0.5,3l1.2-2.8l0.6-1.4l-0.1,0.9L130.5,113z"/>
	<path class="st3" d="M135,112.1c0-0.1-0.1-0.1-0.1-0.2l-0.2,1.9l-0.3,2.5l1.4-1.8l-0.1,1l-0.3,2.5l1.5-2l0.2-0.2
		C136.5,114.4,135.8,113.2,135,112.1z"/>
	<path class="st4" d="M113.3,98.7c-3.2,0-5.7-2.6-5.7-5.7h-2c0,4.3,3.5,7.7,7.7,7.7s7.7-3.5,7.7-7.7h-2
		C119,96.1,116.5,98.7,113.3,98.7z"/>
	<g>
		<path class="st5" d="M51.1,81.7c-0.3,2.6-0.5,5.2-0.5,7.9c0,0.5,0,0.9,0,1.4C60.8,91.8,83,99.5,83,99.5
			C74.2,86.9,56.9,82.8,51.1,81.7z"/>
		<path class="st5" d="M84.3,108.1C74.1,97.7,57.7,96.1,51,95.9c0.3,3.1,0.9,6.2,1.6,9.1C63.4,104.6,84.3,108.1,84.3,108.1z"/>
	</g>
	<path class="st5" d="M141.6,99.5c0,0,21.7-7.6,32-8.5c0-0.5,0-0.9,0-1.4c0-2.7-0.2-5.3-0.5-7.9C166.9,82.9,150.2,87.1,141.6,99.5z"
		/>
	<path class="st5" d="M171.6,105c0.8-3,1.3-6,1.6-9.1c-6.9,0.2-22.9,2-33,12.1C140.3,108.1,160.8,104.6,171.6,105z"/>
	<path d="M187.9,88.2c-19.3-60.7-53.2-68.2-62.5-69.1c-1.5-0.2-3-0.2-4.6,0.2c-5.4,1.5-8.8,6.6-7.5,11.4c0.9,3.3,3.8,5.7,7.2,6.4
		c10.6,13.2,9.2,47.4,9.2,47.4c6.3-21.3,5.9-35.4,3.7-44.5c1.5,0.6,3,1.2,4.5,2c21.9,18.6,28,71.3,28,71.3
		c-0.4-27.9-5.6-47.5-12.2-61.2C173,67,187.9,88.2,187.9,88.2z"/>
	<path d="M82.4,45.8c0.4-3.3-1.7-6.2-4.5-6.5c-0.8-0.1-1.6,0-2.4,0.4C70.8,41.3,53.9,49.9,47.8,91c0,0,14.3-34.5,30.3-40l0,0
		C80.3,50.5,82.1,48.4,82.4,45.8z"/>
	<path d="M113.3,30.6c0-4.7-3.8-8.6-8.6-8.6c-0.2,0-0.4,0-0.6,0c-0.2-0.1-0.4-0.1-0.7-0.2c-1.6-0.4-3.1-0.5-4.6-0.2
		c-9.3,0.9-43.1,8.4-62.5,69.1c0,0,12.8-18.1,30-32.7c-2.3,6.8-3.9,15.5-4.4,26.7c0,0,3.2-10.1,8.6-20.2c-2.8,9.8-4.8,21.8-5.5,36.4
		c0,0,17.1-51.7,42.3-62.1l0,0C110.8,37.7,113.3,34.5,113.3,30.6z"/>
</g>
</svg>
